<mxfile host="app.diagrams.net" modified="2023-03-11T02:37:49.551Z" agent="5.0 (Windows NT 10.0; Win64; x64) AppleWebKit/537.36 (KHTML, like Gecko) Chrome/110.0.0.0 Safari/537.36" etag="bCWAgkrduLRgDKOzq1pe" version="18.0.8" type="github">
  <diagram id="_NJ2zimsSpQRxFjSztmF" name="Page-1">
    <mxGraphModel dx="827" dy="421" grid="1" gridSize="10" guides="1" tooltips="1" connect="1" arrows="1" fold="1" page="1" pageScale="1" pageWidth="827" pageHeight="1169" math="0" shadow="0">
      <root>
        <mxCell id="0" />
        <mxCell id="1" parent="0" />
        <mxCell id="LKKWyLnpAZg1ID6gl56u-6" style="edgeStyle=orthogonalEdgeStyle;rounded=0;orthogonalLoop=1;jettySize=auto;html=1;entryX=0.65;entryY=0.02;entryDx=0;entryDy=0;entryPerimeter=0;" edge="1" parent="1" target="LKKWyLnpAZg1ID6gl56u-4">
          <mxGeometry relative="1" as="geometry">
            <mxPoint x="240" y="80" as="sourcePoint" />
          </mxGeometry>
        </mxCell>
        <mxCell id="LKKWyLnpAZg1ID6gl56u-11" value="" style="edgeStyle=orthogonalEdgeStyle;rounded=0;orthogonalLoop=1;jettySize=auto;html=1;" edge="1" parent="1" source="LKKWyLnpAZg1ID6gl56u-2" target="LKKWyLnpAZg1ID6gl56u-8">
          <mxGeometry relative="1" as="geometry" />
        </mxCell>
        <mxCell id="LKKWyLnpAZg1ID6gl56u-2" value="Inicio" style="html=1;dashed=0;whitespace=wrap;shape=mxgraph.dfd.start" vertex="1" parent="1">
          <mxGeometry x="200" y="30" width="80" height="30" as="geometry" />
        </mxCell>
        <mxCell id="LKKWyLnpAZg1ID6gl56u-19" style="edgeStyle=orthogonalEdgeStyle;rounded=0;orthogonalLoop=1;jettySize=auto;html=1;entryX=0.5;entryY=0;entryDx=0;entryDy=0;entryPerimeter=0;" edge="1" parent="1" source="LKKWyLnpAZg1ID6gl56u-4" target="LKKWyLnpAZg1ID6gl56u-14">
          <mxGeometry relative="1" as="geometry" />
        </mxCell>
        <mxCell id="LKKWyLnpAZg1ID6gl56u-4" value="carroModelo" style="shape=manualInput;whiteSpace=wrap;html=1;dashed=0;size=15;" vertex="1" parent="1">
          <mxGeometry x="180" y="180" width="100" height="50" as="geometry" />
        </mxCell>
        <mxCell id="LKKWyLnpAZg1ID6gl56u-8" value="Digite o modelo do carro" style="strokeWidth=2;html=1;shape=mxgraph.flowchart.display;whiteSpace=wrap;" vertex="1" parent="1">
          <mxGeometry x="190" y="90" width="100" height="60" as="geometry" />
        </mxCell>
        <mxCell id="LKKWyLnpAZg1ID6gl56u-21" style="edgeStyle=orthogonalEdgeStyle;rounded=0;orthogonalLoop=1;jettySize=auto;html=1;exitX=0.5;exitY=1;exitDx=0;exitDy=0;entryX=0.5;entryY=0;entryDx=0;entryDy=0;entryPerimeter=0;" edge="1" parent="1" source="LKKWyLnpAZg1ID6gl56u-13" target="LKKWyLnpAZg1ID6gl56u-16">
          <mxGeometry relative="1" as="geometry" />
        </mxCell>
        <mxCell id="LKKWyLnpAZg1ID6gl56u-13" value="valorDiaria" style="shape=manualInput;whiteSpace=wrap;html=1;dashed=0;size=15;" vertex="1" parent="1">
          <mxGeometry x="180" y="360" width="100" height="50" as="geometry" />
        </mxCell>
        <mxCell id="LKKWyLnpAZg1ID6gl56u-20" style="edgeStyle=orthogonalEdgeStyle;rounded=0;orthogonalLoop=1;jettySize=auto;html=1;exitX=0.5;exitY=1;exitDx=0;exitDy=0;exitPerimeter=0;entryX=0.5;entryY=0;entryDx=0;entryDy=0;" edge="1" parent="1" source="LKKWyLnpAZg1ID6gl56u-14" target="LKKWyLnpAZg1ID6gl56u-13">
          <mxGeometry relative="1" as="geometry" />
        </mxCell>
        <mxCell id="LKKWyLnpAZg1ID6gl56u-14" value="Digite o valor da diaria de locação" style="strokeWidth=2;html=1;shape=mxgraph.flowchart.display;whiteSpace=wrap;" vertex="1" parent="1">
          <mxGeometry x="185" y="260" width="100" height="60" as="geometry" />
        </mxCell>
        <mxCell id="LKKWyLnpAZg1ID6gl56u-24" style="edgeStyle=orthogonalEdgeStyle;rounded=0;orthogonalLoop=1;jettySize=auto;html=1;entryX=0.5;entryY=0;entryDx=0;entryDy=0;entryPerimeter=0;" edge="1" parent="1" source="LKKWyLnpAZg1ID6gl56u-15" target="LKKWyLnpAZg1ID6gl56u-18">
          <mxGeometry relative="1" as="geometry" />
        </mxCell>
        <mxCell id="LKKWyLnpAZg1ID6gl56u-15" value="&amp;nbsp;qtdeDias&amp;nbsp;" style="shape=manualInput;whiteSpace=wrap;html=1;dashed=0;size=15;" vertex="1" parent="1">
          <mxGeometry x="180" y="550" width="100" height="50" as="geometry" />
        </mxCell>
        <mxCell id="LKKWyLnpAZg1ID6gl56u-23" style="edgeStyle=orthogonalEdgeStyle;rounded=0;orthogonalLoop=1;jettySize=auto;html=1;entryX=0.5;entryY=0;entryDx=0;entryDy=0;" edge="1" parent="1" source="LKKWyLnpAZg1ID6gl56u-16" target="LKKWyLnpAZg1ID6gl56u-15">
          <mxGeometry relative="1" as="geometry" />
        </mxCell>
        <mxCell id="LKKWyLnpAZg1ID6gl56u-16" value="Digite qtde dias de locação" style="strokeWidth=2;html=1;shape=mxgraph.flowchart.display;whiteSpace=wrap;" vertex="1" parent="1">
          <mxGeometry x="185" y="460" width="100" height="60" as="geometry" />
        </mxCell>
        <mxCell id="LKKWyLnpAZg1ID6gl56u-30" style="edgeStyle=orthogonalEdgeStyle;rounded=0;orthogonalLoop=1;jettySize=auto;html=1;exitX=0.5;exitY=1;exitDx=0;exitDy=0;entryX=0.5;entryY=0;entryDx=0;entryDy=0;entryPerimeter=0;" edge="1" parent="1" source="LKKWyLnpAZg1ID6gl56u-17" target="LKKWyLnpAZg1ID6gl56u-28">
          <mxGeometry relative="1" as="geometry" />
        </mxCell>
        <mxCell id="LKKWyLnpAZg1ID6gl56u-17" value="kmInicial" style="shape=manualInput;whiteSpace=wrap;html=1;dashed=0;size=15;" vertex="1" parent="1">
          <mxGeometry x="180" y="750" width="100" height="50" as="geometry" />
        </mxCell>
        <mxCell id="LKKWyLnpAZg1ID6gl56u-25" style="edgeStyle=orthogonalEdgeStyle;rounded=0;orthogonalLoop=1;jettySize=auto;html=1;entryX=0.5;entryY=0;entryDx=0;entryDy=0;" edge="1" parent="1" source="LKKWyLnpAZg1ID6gl56u-18" target="LKKWyLnpAZg1ID6gl56u-17">
          <mxGeometry relative="1" as="geometry" />
        </mxCell>
        <mxCell id="LKKWyLnpAZg1ID6gl56u-18" value="Digite Km Inicial" style="strokeWidth=2;html=1;shape=mxgraph.flowchart.display;whiteSpace=wrap;" vertex="1" parent="1">
          <mxGeometry x="180" y="650" width="100" height="60" as="geometry" />
        </mxCell>
        <mxCell id="LKKWyLnpAZg1ID6gl56u-31" style="edgeStyle=orthogonalEdgeStyle;rounded=0;orthogonalLoop=1;jettySize=auto;html=1;exitX=0.5;exitY=1;exitDx=0;exitDy=0;entryX=0.443;entryY=0.017;entryDx=0;entryDy=0;entryPerimeter=0;" edge="1" parent="1" source="LKKWyLnpAZg1ID6gl56u-26">
          <mxGeometry relative="1" as="geometry">
            <mxPoint x="230.94500000000005" y="1021.02" as="targetPoint" />
          </mxGeometry>
        </mxCell>
        <mxCell id="LKKWyLnpAZg1ID6gl56u-26" value="kmFinal" style="shape=manualInput;whiteSpace=wrap;html=1;dashed=0;size=15;" vertex="1" parent="1">
          <mxGeometry x="180" y="930" width="100" height="50" as="geometry" />
        </mxCell>
        <mxCell id="LKKWyLnpAZg1ID6gl56u-27" style="edgeStyle=orthogonalEdgeStyle;rounded=0;orthogonalLoop=1;jettySize=auto;html=1;entryX=0.5;entryY=0;entryDx=0;entryDy=0;" edge="1" parent="1" source="LKKWyLnpAZg1ID6gl56u-28" target="LKKWyLnpAZg1ID6gl56u-26">
          <mxGeometry relative="1" as="geometry" />
        </mxCell>
        <mxCell id="LKKWyLnpAZg1ID6gl56u-28" value="Digite Km Final" style="strokeWidth=2;html=1;shape=mxgraph.flowchart.display;whiteSpace=wrap;" vertex="1" parent="1">
          <mxGeometry x="180" y="830" width="100" height="60" as="geometry" />
        </mxCell>
        <mxCell id="LKKWyLnpAZg1ID6gl56u-32" value="A" style="shape=ellipse;html=1;dashed=0;whitespace=wrap;aspect=fixed;perimeter=ellipsePerimeter;" vertex="1" parent="1">
          <mxGeometry x="215" y="1020" width="30" height="30" as="geometry" />
        </mxCell>
        <mxCell id="LKKWyLnpAZg1ID6gl56u-38" style="edgeStyle=orthogonalEdgeStyle;rounded=0;orthogonalLoop=1;jettySize=auto;html=1;exitX=0.5;exitY=1;exitDx=0;exitDy=0;exitPerimeter=0;entryX=0.5;entryY=0;entryDx=0;entryDy=0;" edge="1" parent="1" source="LKKWyLnpAZg1ID6gl56u-35" target="LKKWyLnpAZg1ID6gl56u-37">
          <mxGeometry relative="1" as="geometry" />
        </mxCell>
        <mxCell id="LKKWyLnpAZg1ID6gl56u-35" value="kmPercorrido" style="strokeWidth=2;html=1;shape=mxgraph.flowchart.display;whiteSpace=wrap;" vertex="1" parent="1">
          <mxGeometry x="455" y="250" width="100" height="60" as="geometry" />
        </mxCell>
        <mxCell id="LKKWyLnpAZg1ID6gl56u-47" style="edgeStyle=orthogonalEdgeStyle;rounded=0;orthogonalLoop=1;jettySize=auto;html=1;exitX=0.5;exitY=1;exitDx=0;exitDy=0;entryX=0.593;entryY=-0.059;entryDx=0;entryDy=0;entryPerimeter=0;" edge="1" parent="1" source="LKKWyLnpAZg1ID6gl56u-37" target="LKKWyLnpAZg1ID6gl56u-39">
          <mxGeometry relative="1" as="geometry" />
        </mxCell>
        <mxCell id="LKKWyLnpAZg1ID6gl56u-37" value="precoTotal =&amp;nbsp; &lt;br&gt;(valorDiaria * qdteDias) +&amp;nbsp;&lt;br&gt;(kmPercorrido * 0,20)" style="html=1;dashed=0;whitespace=wrap;" vertex="1" parent="1">
          <mxGeometry x="432.5" y="360" width="145" height="70" as="geometry" />
        </mxCell>
        <mxCell id="LKKWyLnpAZg1ID6gl56u-48" style="edgeStyle=orthogonalEdgeStyle;rounded=0;orthogonalLoop=1;jettySize=auto;html=1;entryX=0.5;entryY=0;entryDx=0;entryDy=0;entryPerimeter=0;" edge="1" parent="1" source="LKKWyLnpAZg1ID6gl56u-39" target="LKKWyLnpAZg1ID6gl56u-40">
          <mxGeometry relative="1" as="geometry" />
        </mxCell>
        <mxCell id="LKKWyLnpAZg1ID6gl56u-39" value="precoTotal" style="strokeWidth=2;html=1;shape=mxgraph.flowchart.display;whiteSpace=wrap;" vertex="1" parent="1">
          <mxGeometry x="462.5" y="490" width="100" height="60" as="geometry" />
        </mxCell>
        <mxCell id="LKKWyLnpAZg1ID6gl56u-49" style="edgeStyle=orthogonalEdgeStyle;rounded=0;orthogonalLoop=1;jettySize=auto;html=1;entryX=0.5;entryY=0.5;entryDx=0;entryDy=-15;entryPerimeter=0;" edge="1" parent="1" source="LKKWyLnpAZg1ID6gl56u-40" target="LKKWyLnpAZg1ID6gl56u-41">
          <mxGeometry relative="1" as="geometry" />
        </mxCell>
        <mxCell id="LKKWyLnpAZg1ID6gl56u-40" value="qtdeDias" style="strokeWidth=2;html=1;shape=mxgraph.flowchart.display;whiteSpace=wrap;" vertex="1" parent="1">
          <mxGeometry x="457.5" y="710" width="100" height="60" as="geometry" />
        </mxCell>
        <mxCell id="LKKWyLnpAZg1ID6gl56u-41" value="Fim" style="html=1;dashed=0;whitespace=wrap;shape=mxgraph.dfd.start" vertex="1" parent="1">
          <mxGeometry x="472.5" y="830" width="80" height="30" as="geometry" />
        </mxCell>
        <mxCell id="LKKWyLnpAZg1ID6gl56u-45" style="edgeStyle=orthogonalEdgeStyle;rounded=0;orthogonalLoop=1;jettySize=auto;html=1;exitX=0.5;exitY=1;exitDx=0;exitDy=0;entryX=0.5;entryY=0;entryDx=0;entryDy=0;" edge="1" parent="1" source="LKKWyLnpAZg1ID6gl56u-42" target="LKKWyLnpAZg1ID6gl56u-43">
          <mxGeometry relative="1" as="geometry" />
        </mxCell>
        <mxCell id="LKKWyLnpAZg1ID6gl56u-42" value="A" style="shape=ellipse;html=1;dashed=0;whitespace=wrap;aspect=fixed;perimeter=ellipsePerimeter;" vertex="1" parent="1">
          <mxGeometry x="485" y="30" width="30" height="30" as="geometry" />
        </mxCell>
        <mxCell id="LKKWyLnpAZg1ID6gl56u-46" style="edgeStyle=orthogonalEdgeStyle;rounded=0;orthogonalLoop=1;jettySize=auto;html=1;exitX=0.5;exitY=1;exitDx=0;exitDy=0;entryX=0.5;entryY=0;entryDx=0;entryDy=0;entryPerimeter=0;" edge="1" parent="1" source="LKKWyLnpAZg1ID6gl56u-43" target="LKKWyLnpAZg1ID6gl56u-35">
          <mxGeometry relative="1" as="geometry" />
        </mxCell>
        <mxCell id="LKKWyLnpAZg1ID6gl56u-43" value="kmPercorrido = &lt;br&gt;kmFinal - kmInicial" style="html=1;dashed=0;whitespace=wrap;" vertex="1" parent="1">
          <mxGeometry x="447.5" y="130" width="115" height="60" as="geometry" />
        </mxCell>
        <mxCell id="LKKWyLnpAZg1ID6gl56u-53" value="carroModelo" style="strokeWidth=2;html=1;shape=mxgraph.flowchart.display;whiteSpace=wrap;" vertex="1" parent="1">
          <mxGeometry x="462.5" y="590" width="100" height="60" as="geometry" />
        </mxCell>
      </root>
    </mxGraphModel>
  </diagram>
</mxfile>
